<?xml version="1.0" encoding="utf-8"?>
<!-- Generator: Adobe Illustrator 16.0.0, SVG Export Plug-In . SVG Version: 6.00 Build 0)  -->
<!DOCTYPE svg PUBLIC "-//W3C//DTD SVG 1.1//EN" "http://www.w3.org/Graphics/SVG/1.1/DTD/svg11.dtd">
<svg version="1.1" id="Layer_1" xmlns="http://www.w3.org/2000/svg" xmlns:xlink="http://www.w3.org/1999/xlink" x="0px" y="0px"
	 width="30px" height="30px" viewBox="0 0 30 30" enable-background="new 0 0 30 30" xml:space="preserve">
<linearGradient id="SVGID_1_" gradientUnits="userSpaceOnUse" x1="4.394" y1="4.394" x2="25.6072" y2="25.6072">
	<stop  offset="0" style="stop-color:#A737AD"/>
	<stop  offset="1" style="stop-color:#FF8945"/>
</linearGradient>
<circle fill="url(#SVGID_1_)" cx="15" cy="15" r="15"/>
<path fill="#FFFFFF" d="M19.598,7.525h-8.946c-1.553,0-2.816,1.264-2.816,2.816v2.975v5.971c0,1.553,1.264,2.816,2.816,2.816h8.946
	c1.552,0,2.815-1.264,2.815-2.816v-5.971v-2.975C22.413,8.789,21.149,7.525,19.598,7.525z M20.406,9.205h0.322v0.32v2.15
	l-2.466,0.008l-0.009-2.471L20.406,9.205z M13.043,13.316c0.467-0.645,1.224-1.068,2.081-1.068s1.613,0.424,2.081,1.068
	c0.304,0.422,0.486,0.939,0.486,1.498c0,1.414-1.153,2.564-2.567,2.564c-1.415,0-2.566-1.15-2.566-2.564
	C12.558,14.256,12.74,13.738,13.043,13.316z M20.993,19.287c0,0.771-0.627,1.396-1.396,1.396h-8.946
	c-0.771,0-1.396-0.625-1.396-1.396v-5.971h2.178c-0.19,0.463-0.296,0.969-0.296,1.498c0,2.197,1.79,3.986,3.986,3.986
	c2.197,0,3.986-1.789,3.986-3.986c0-0.529-0.107-1.035-0.295-1.498h2.178V19.287z"/>
</svg>
