<?xml version="1.0" encoding="utf-8"?>
<!-- Generator: Adobe Illustrator 16.0.0, SVG Export Plug-In . SVG Version: 6.00 Build 0)  -->
<!DOCTYPE svg PUBLIC "-//W3C//DTD SVG 1.1//EN" "http://www.w3.org/Graphics/SVG/1.1/DTD/svg11.dtd">
<svg version="1.1" id="Layer_1" xmlns="http://www.w3.org/2000/svg" xmlns:xlink="http://www.w3.org/1999/xlink" x="0px" y="0px"
	 width="30px" height="30px" viewBox="0 0 30 30" enable-background="new 0 0 30 30" xml:space="preserve">
<circle fill="#EAEAEA" cx="15" cy="15" r="15"/>
<g>
	<circle fill="#9C9C9C" cx="10.027" cy="13.442" r="0.616"/>
	<circle fill="#9C9C9C" cx="16.108" cy="13.425" r="0.663"/>
	<path fill="#9C9C9C" d="M21.613,6.707H8.518c-1.321,0-2.392,1.072-2.392,2.393v7.771c0,1.322,1.07,2.393,2.392,2.393h4.625
		l1.573,3.707c0,0,0.108,0.32,0.371,0.32l0,0c0.263,0,0.37-0.32,0.37-0.32l1.573-3.707h4.583c1.321,0,2.392-1.07,2.392-2.393V9.1
		C24.005,7.779,22.935,6.707,21.613,6.707z M11.743,13.578c-0.008,1.42-1.477,1.461-1.477,1.461c-0.568,0-0.89-0.375-0.89-0.375
		v0.254H8.308v-4.41c-0.005-0.002-0.005-0.002,0-0.004v0.004c0.066,0.01,1.069-0.004,1.069-0.004v1.688
		c0.252-0.428,0.979-0.422,0.979-0.422C11.94,11.918,11.743,13.578,11.743,13.578z M13.626,11.906v3.021h-1.047v-2.992
		c0-0.406-0.505-0.52-0.505-0.52v-1.055C13.747,10.43,13.626,11.906,13.626,11.906z M16.108,15.041c-0.97,0-1.755-0.723-1.755-1.615
		s0.785-1.617,1.755-1.617s1.755,0.725,1.755,1.617S17.078,15.041,16.108,15.041z M21.846,15.041c0,0,0.015,1.535-1.544,1.535
		h-0.476v-0.994h0.286c0,0,0.656,0.061,0.648-0.949c0,0-0.128,0.408-1.047,0.408c0,0-1.304-0.094-1.304-1.365v-0.482
		c0,0,0.03-1.318,1.461-1.424c0,0,0.565-0.061,0.912,0.408v-0.324h1.063V15.041z"/>
	<circle fill="#9C9C9C" cx="20.181" cy="13.426" r="0.648"/>
</g>
</svg>
