<?xml version="1.0" encoding="utf-8"?>
<!-- Generator: Adobe Illustrator 16.0.0, SVG Export Plug-In . SVG Version: 6.00 Build 0)  -->
<!DOCTYPE svg PUBLIC "-//W3C//DTD SVG 1.1//EN" "http://www.w3.org/Graphics/SVG/1.1/DTD/svg11.dtd">
<svg version="1.1" id="Layer_1" xmlns="http://www.w3.org/2000/svg" xmlns:xlink="http://www.w3.org/1999/xlink" x="0px" y="0px"
	 width="30px" height="30px" viewBox="0 0 30 30" enable-background="new 0 0 30 30" xml:space="preserve">
<circle fill="#D92F36" cx="15" cy="15" r="15"/>
<g>
	<path fill="#FFFFFF" d="M20.377,14.378H10.009c-1.362,0-2.468,1.215-2.468,2.715v0.98v2.361v0.221c0,1.498,1.105,2.717,2.468,2.717
		h0.328h9.711h0.328c1.363,0,2.469-1.219,2.469-2.717v-0.221v-2.361v-0.98C22.846,15.593,21.74,14.378,20.377,14.378z M12.072,16.95
		h-1.016v5.039H10.08V16.95H9.064v-0.857h3.008V16.95z M14.934,21.989h-0.87v-0.479c-0.158,0.178-0.325,0.313-0.5,0.402
		c-0.173,0.094-0.34,0.139-0.507,0.139c-0.201,0-0.349-0.063-0.452-0.195c-0.101-0.131-0.153-0.32-0.153-0.58v-3.639h0.87v3.338
		c0,0.102,0.018,0.176,0.054,0.223c0.036,0.045,0.097,0.068,0.179,0.068c0.063,0,0.145-0.029,0.242-0.092
		c0.099-0.061,0.188-0.139,0.268-0.234v-3.303h0.87V21.989z M18.09,21.089c0,0.307-0.07,0.545-0.205,0.709
		c-0.137,0.162-0.334,0.246-0.592,0.246c-0.17,0-0.32-0.029-0.455-0.094c-0.131-0.064-0.258-0.162-0.371-0.297v0.336H15.59v-5.896
		h0.877v1.898c0.119-0.131,0.244-0.234,0.375-0.303s0.266-0.104,0.4-0.104c0.273,0,0.486,0.092,0.631,0.279
		c0.145,0.184,0.217,0.455,0.217,0.811V21.089z M21.105,19.917h-1.664v0.818c0,0.23,0.027,0.391,0.084,0.479
		c0.059,0.09,0.156,0.133,0.293,0.133c0.145,0,0.248-0.039,0.303-0.113c0.057-0.076,0.088-0.24,0.088-0.498V20.54h0.896v0.223
		c0,0.443-0.109,0.781-0.33,1.008c-0.217,0.225-0.545,0.336-0.975,0.336c-0.391,0-0.699-0.117-0.92-0.359
		c-0.223-0.236-0.338-0.568-0.338-0.984v-1.955c0-0.375,0.125-0.686,0.371-0.922c0.248-0.238,0.563-0.355,0.953-0.355
		c0.395,0,0.703,0.109,0.916,0.33c0.213,0.219,0.322,0.535,0.322,0.947V19.917z"/>
	<path fill="#FFFFFF" d="M19.828,18.292c-0.139,0-0.236,0.037-0.299,0.119c-0.059,0.078-0.088,0.207-0.088,0.391v0.438h0.768v-0.438
		c0-0.184-0.031-0.313-0.092-0.391C20.059,18.329,19.963,18.292,19.828,18.292z"/>
	<path fill="#FFFFFF" d="M16.828,18.276c-0.059,0-0.121,0.014-0.184,0.041c-0.059,0.029-0.119,0.074-0.178,0.133v2.711
		c0.07,0.068,0.137,0.123,0.207,0.154c0.066,0.031,0.137,0.047,0.209,0.047c0.105,0,0.186-0.029,0.236-0.092
		c0.047-0.064,0.074-0.16,0.074-0.299v-2.248c0-0.146-0.031-0.258-0.092-0.334C17.037,18.313,16.949,18.276,16.828,18.276z"/>
	<polygon fill="#FFFFFF" points="11.364,13.495 12.464,13.495 12.464,10.8 13.748,6.999 12.628,6.999 11.948,9.595 11.877,9.595 
		11.161,6.999 10.051,6.999 11.364,10.921 	"/>
	<path fill="#FFFFFF" d="M15.241,13.616c0.443,0,0.794-0.117,1.048-0.352c0.25-0.234,0.379-0.553,0.379-0.963V9.827
		c0-0.365-0.129-0.666-0.387-0.898c-0.26-0.229-0.592-0.346-0.996-0.346c-0.444,0-0.798,0.109-1.063,0.328
		c-0.264,0.221-0.395,0.516-0.395,0.887v2.484c0,0.406,0.128,0.73,0.386,0.971C14.47,13.495,14.813,13.616,15.241,13.616z
		 M14.835,9.763c0-0.104,0.035-0.188,0.11-0.256c0.076-0.063,0.172-0.094,0.291-0.094c0.128,0,0.234,0.031,0.316,0.094
		c0.076,0.068,0.115,0.152,0.115,0.256v2.609c0,0.129-0.035,0.23-0.115,0.303c-0.078,0.074-0.182,0.109-0.316,0.109
		c-0.128,0-0.23-0.033-0.298-0.107c-0.069-0.07-0.104-0.174-0.104-0.305V9.763z"/>
	<path fill="#FFFFFF" d="M18.146,13.565c0.184,0,0.371-0.053,0.566-0.154c0.193-0.104,0.385-0.252,0.564-0.447v0.531h0.977V8.704
		h-0.977v3.637c-0.092,0.104-0.195,0.189-0.305,0.256c-0.109,0.068-0.199,0.102-0.271,0.102c-0.092,0-0.16-0.025-0.199-0.078
		c-0.039-0.049-0.063-0.131-0.063-0.244V8.704h-0.979v4.004c0,0.285,0.059,0.498,0.172,0.641S17.916,13.565,18.146,13.565z"/>
</g>
</svg>
