<?xml version="1.0" encoding="utf-8"?>
<!-- Generator: Adobe Illustrator 16.0.0, SVG Export Plug-In . SVG Version: 6.00 Build 0)  -->
<!DOCTYPE svg PUBLIC "-//W3C//DTD SVG 1.1//EN" "http://www.w3.org/Graphics/SVG/1.1/DTD/svg11.dtd">
<svg version="1.1" id="Layer_1" xmlns="http://www.w3.org/2000/svg" xmlns:xlink="http://www.w3.org/1999/xlink" x="0px" y="0px"
	 width="30px" height="30px" viewBox="0 0 30 30" enable-background="new 0 0 30 30" xml:space="preserve">
<circle fill="#E9E9E9" cx="15" cy="15" r="15"/>
<path fill="#9C9C9C" d="M22.828,10.348c-0.552,0.244-1.146,0.41-1.768,0.482c0.636-0.381,1.123-0.982,1.354-1.701
	C21.819,9.48,21.16,9.736,20.46,9.875c-0.562-0.598-1.361-0.971-2.247-0.971c-1.699,0-3.077,1.377-3.077,3.076
	c0,0.242,0.027,0.477,0.08,0.701c-2.559-0.127-4.825-1.354-6.343-3.215c-0.266,0.455-0.417,0.982-0.417,1.547
	c0,1.068,0.543,2.01,1.368,2.563c-0.504-0.018-0.979-0.154-1.394-0.387c0,0.014,0,0.027,0,0.039c0,1.492,1.061,2.736,2.469,3.018
	c-0.259,0.07-0.53,0.107-0.811,0.107c-0.199,0-0.392-0.018-0.579-0.055c0.391,1.223,1.528,2.113,2.875,2.137
	c-1.054,0.826-2.381,1.318-3.822,1.318c-0.249,0-0.493-0.016-0.734-0.043c1.361,0.873,2.979,1.383,4.718,1.383
	c5.661,0,8.756-4.689,8.756-8.756c0-0.133-0.004-0.266-0.009-0.398C21.894,11.506,22.416,10.963,22.828,10.348"/>
</svg>
